<svg width="28" height="28" viewBox="0 0 28 28" fill="none" xmlns="http://www.w3.org/2000/svg">
<path d="M27.25 10C27.625 10 28 9.6875 28 9.25V6.75C28 6.375 27.625 6 27.25 6H22V0.75C22 0.375 21.625 0 21.25 0H18.75C18.3125 0 18 0.375 18 0.75V8.5C18 9.375 18.625 10 19.5 10H27.25ZM10 8.5V0.75C10 0.375 9.625 0 9.25 0H6.75C6.3125 0 6 0.375 6 0.75V6H0.75C0.3125 6 0 6.375 0 6.75V9.25C0 9.6875 0.3125 10 0.75 10H8.5C9.3125 10 10 9.375 10 8.5ZM10 27.25V19.5C10 18.6875 9.3125 18 8.5 18H0.75C0.3125 18 0 18.375 0 18.75V21.25C0 21.6875 0.3125 22 0.75 22H6V27.25C6 27.6875 6.3125 28 6.75 28H9.25C9.625 28 10 27.6875 10 27.25ZM22 27.25V22H27.25C27.625 22 28 21.6875 28 21.25V18.75C28 18.375 27.625 18 27.25 18H19.5C18.625 18 18 18.6875 18 19.5V27.25C18 27.6875 18.3125 28 18.75 28H21.25C21.625 28 22 27.6875 22 27.25Z" fill="white"/>
</svg>
