<svg width="28" height="28" viewBox="0 0 28 28" fill="none" xmlns="http://www.w3.org/2000/svg">
<path d="M0 9.25C0 9.6875 0.3125 10 0.75 10H3.25C3.625 10 4 9.6875 4 9.25V4H9.25C9.625 4 10 3.6875 10 3.25V0.75C10 0.375 9.625 0 9.25 0H1.5C0.625 0 0 0.6875 0 1.5V9.25ZM18 0.75V3.25C18 3.6875 18.3125 4 18.75 4H24V9.25C24 9.6875 24.3125 10 24.75 10H27.25C27.625 10 28 9.6875 28 9.25V1.5C28 0.6875 27.3125 0 26.5 0H18.75C18.3125 0 18 0.375 18 0.75ZM27.25 18H24.75C24.3125 18 24 18.375 24 18.75V24H18.75C18.3125 24 18 24.375 18 24.75V27.25C18 27.6875 18.3125 28 18.75 28H26.5C27.3125 28 28 27.375 28 26.5V18.75C28 18.375 27.625 18 27.25 18ZM10 27.25V24.75C10 24.375 9.625 24 9.25 24H4V18.75C4 18.375 3.625 18 3.25 18H0.75C0.3125 18 0 18.375 0 18.75V26.5C0 27.375 0.625 28 1.5 28H9.25C9.625 28 10 27.6875 10 27.25Z" fill="white"/>
</svg>
