<svg width="15" height="15" viewBox="0 0 15 15" fill="none" xmlns="http://www.w3.org/2000/svg">
<path d="M10.2912 7.5L14.1975 3.59375C14.7053 3.125 14.7053 2.34375 14.1975 1.875L13.3381 1.01562C12.8694 0.507812 12.0881 0.507812 11.6194 1.01562L7.7131 4.92188L3.76779 1.01562C3.29904 0.507812 2.51779 0.507812 2.04904 1.01562L1.18967 1.875C0.681854 2.34375 0.681854 3.125 1.18967 3.59375L5.09592 7.5L1.18967 11.4453C0.681854 11.9141 0.681854 12.6953 1.18967 13.1641L2.04904 14.0234C2.51779 14.5312 3.29904 14.5312 3.76779 14.0234L7.7131 10.1172L11.6194 14.0234C12.0881 14.5312 12.8694 14.5312 13.3381 14.0234L14.1975 13.1641C14.7053 12.6953 14.7053 11.9141 14.1975 11.4453L10.2912 7.5Z" fill="#FF9D9D"/>
</svg>
