<svg width="94" height="114" viewBox="0 0 94 114" fill="none" xmlns="http://www.w3.org/2000/svg">
<g filter="url(#filter0_d_18_11149)">
<path d="M89.6601 76.54C89.6601 80.8333 89.0535 84.7533 87.8401 88.3C86.6268 91.7533 84.4334 94.74 81.2601 97.26C78.0868 99.6866 73.7001 101.6 68.1001 103C62.5935 104.4 55.5468 105.1 46.9601 105.1C38.3735 105.1 31.2801 104.4 25.6801 103C20.1735 101.6 15.8335 99.6866 12.6601 97.26C9.48678 94.74 7.24678 91.7533 5.94012 88.3C4.72678 84.7533 4.12012 80.8333 4.12012 76.54V28.8C4.12012 24.5066 4.72678 20.6333 5.94012 17.18C7.24678 13.6333 9.48678 10.6 12.6601 8.07997C15.8335 5.55997 20.1735 3.59997 25.6801 2.19997C31.2801 0.799975 38.3735 0.0999756 46.9601 0.0999756C55.5468 0.0999756 62.5935 0.799975 68.1001 2.19997C73.7001 3.59997 78.0868 5.55997 81.2601 8.07997C84.4334 10.6 86.6268 13.6333 87.8401 17.18C89.0535 20.6333 89.6601 24.5066 89.6601 28.8V76.54ZM35.7601 71.5C35.7601 73.3666 36.4135 74.9533 37.7201 76.26C39.1201 77.4733 42.2001 78.08 46.9601 78.08C51.7201 78.08 54.7535 77.4733 56.0601 76.26C57.4601 74.9533 58.1601 73.3666 58.1601 71.5V33.84C58.1601 32.0666 57.4601 30.5733 56.0601 29.36C54.7535 28.0533 51.7201 27.4 46.9601 27.4C42.2001 27.4 39.1201 28.0533 37.7201 29.36C36.4135 30.5733 35.7601 32.0666 35.7601 33.84V71.5Z" fill="#FF9600"/>
</g>
<defs>
<filter id="filter0_d_18_11149" x="0.120117" y="0.0999756" width="93.54" height="113" filterUnits="userSpaceOnUse" color-interpolation-filters="sRGB">
<feFlood flood-opacity="0" result="BackgroundImageFix"/>
<feColorMatrix in="SourceAlpha" type="matrix" values="0 0 0 0 0 0 0 0 0 0 0 0 0 0 0 0 0 0 127 0" result="hardAlpha"/>
<feOffset dy="4"/>
<feGaussianBlur stdDeviation="2"/>
<feComposite in2="hardAlpha" operator="out"/>
<feColorMatrix type="matrix" values="0 0 0 0 0 0 0 0 0 0 0 0 0 0 0 0 0 0 0.25 0"/>
<feBlend mode="normal" in2="BackgroundImageFix" result="effect1_dropShadow_18_11149"/>
<feBlend mode="normal" in="SourceGraphic" in2="effect1_dropShadow_18_11149" result="shape"/>
</filter>
</defs>
</svg>
