<svg width="86" height="109" viewBox="0 0 86 109" fill="none" xmlns="http://www.w3.org/2000/svg">
<g filter="url(#filter0_d_18_11141)">
<path d="M76.2801 101H9.6401C7.86676 101 6.5601 100.627 5.7201 99.88C4.97343 99.04 4.6001 97.7334 4.6001 95.96V71.88C4.6001 66.4667 5.11343 62.0334 6.1401 58.58C7.2601 55.0333 8.8001 52.14 10.7601 49.9C12.7201 47.66 15.0534 45.8867 17.7601 44.58C20.4668 43.2733 23.4068 42.1533 26.5801 41.22L45.3401 35.34C46.8334 34.9667 47.8134 34.4067 48.2801 33.66C48.8401 32.9133 49.1201 31.7933 49.1201 30.3C49.1201 28.9 48.8401 27.9667 48.2801 27.5C47.7201 26.94 46.7401 26.66 45.3401 26.66H14.9601C13.1868 26.66 11.8801 26.2867 11.0401 25.54C10.2934 24.7 9.9201 23.3933 9.9201 21.62V5.24001C9.9201 3.46668 10.2934 2.20668 11.0401 1.46001C11.8801 0.62001 13.1868 0.200012 14.9601 0.200012H56.2601C64.1934 0.200012 70.2601 2.20668 74.4601 6.22001C78.7534 10.14 80.9001 15.88 80.9001 23.44V36.6C80.9001 43.6 78.9401 48.9667 75.0201 52.7C71.1001 56.4333 65.7801 59.3267 59.0601 61.38L40.0201 67.4C38.6201 67.7733 37.6401 68.1933 37.0801 68.66C36.6134 69.1267 36.3801 70.1067 36.3801 71.6V74.54H76.2801C78.0534 74.54 79.3134 74.96 80.0601 75.8C80.9001 76.5467 81.3201 77.8067 81.3201 79.58V95.96C81.3201 97.7334 80.9001 99.04 80.0601 99.88C79.3134 100.627 78.0534 101 76.2801 101Z" fill="#FF9600"/>
</g>
<defs>
<filter id="filter0_d_18_11141" x="0.600098" y="0.200012" width="84.7202" height="108.8" filterUnits="userSpaceOnUse" color-interpolation-filters="sRGB">
<feFlood flood-opacity="0" result="BackgroundImageFix"/>
<feColorMatrix in="SourceAlpha" type="matrix" values="0 0 0 0 0 0 0 0 0 0 0 0 0 0 0 0 0 0 127 0" result="hardAlpha"/>
<feOffset dy="4"/>
<feGaussianBlur stdDeviation="2"/>
<feComposite in2="hardAlpha" operator="out"/>
<feColorMatrix type="matrix" values="0 0 0 0 0 0 0 0 0 0 0 0 0 0 0 0 0 0 0.25 0"/>
<feBlend mode="normal" in2="BackgroundImageFix" result="effect1_dropShadow_18_11141"/>
<feBlend mode="normal" in="SourceGraphic" in2="effect1_dropShadow_18_11141" result="shape"/>
</filter>
</defs>
</svg>
