<svg width="86" height="109" viewBox="0 0 86 109" fill="none" xmlns="http://www.w3.org/2000/svg">
<g filter="url(#filter0_d_18_11142)">
<path d="M9.89986 74.54H45.0399C47.2799 74.54 48.7265 74.12 49.3799 73.28C50.0332 72.44 50.3599 71.46 50.3599 70.34V66.56C50.3599 65.44 50.0332 64.5067 49.3799 63.76C48.7265 62.92 47.2799 62.5 45.0399 62.5H21.2399C19.4665 62.5 18.1599 62.1267 17.3199 61.38C16.5732 60.54 16.1999 59.2333 16.1999 57.46V42.48C16.1999 40.7067 16.5732 39.4467 17.3199 38.7C18.1599 37.86 19.4665 37.44 21.2399 37.44H35.9399C38.1799 37.44 39.6265 37.02 40.2799 36.18C40.9332 35.34 41.2599 34.36 41.2599 33.24V31.14C41.2599 30.02 40.9332 29.04 40.2799 28.2C39.6265 27.36 38.1799 26.94 35.9399 26.94H9.89986C8.12653 26.94 6.81986 26.5667 5.97986 25.82C5.2332 24.98 4.85986 23.6733 4.85986 21.9V5.24001C4.85986 3.46668 5.2332 2.20668 5.97986 1.46001C6.81986 0.62001 8.12653 0.200012 9.89986 0.200012H48.9599C56.7065 0.200012 62.4465 2.02001 66.1799 5.66001C70.0065 9.20668 71.9199 14.06 71.9199 20.22V28.34C71.9199 31.8867 71.3132 34.9667 70.0999 37.58C68.8865 40.1934 66.7399 42.1533 63.6599 43.46C70.2865 44.2067 74.8599 46.26 77.3799 49.62C79.9932 52.8867 81.2999 57.6 81.2999 63.76V77.76C81.2999 84.9467 79.0132 90.64 74.4399 94.84C69.8665 98.9467 63.0999 101 54.1399 101H9.89986C8.12653 101 6.81986 100.627 5.97986 99.88C5.2332 99.04 4.85986 97.7334 4.85986 95.96V79.58C4.85986 77.8067 5.2332 76.5467 5.97986 75.8C6.81986 74.96 8.12653 74.54 9.89986 74.54Z" fill="#FF9600"/>
</g>
<defs>
<filter id="filter0_d_18_11142" x="0.859863" y="0.200012" width="84.4399" height="108.8" filterUnits="userSpaceOnUse" color-interpolation-filters="sRGB">
<feFlood flood-opacity="0" result="BackgroundImageFix"/>
<feColorMatrix in="SourceAlpha" type="matrix" values="0 0 0 0 0 0 0 0 0 0 0 0 0 0 0 0 0 0 127 0" result="hardAlpha"/>
<feOffset dy="4"/>
<feGaussianBlur stdDeviation="2"/>
<feComposite in2="hardAlpha" operator="out"/>
<feColorMatrix type="matrix" values="0 0 0 0 0 0 0 0 0 0 0 0 0 0 0 0 0 0 0.25 0"/>
<feBlend mode="normal" in2="BackgroundImageFix" result="effect1_dropShadow_18_11142"/>
<feBlend mode="normal" in="SourceGraphic" in2="effect1_dropShadow_18_11142" result="shape"/>
</filter>
</defs>
</svg>
