<svg width="91" height="112" viewBox="0 0 91 112" fill="none" xmlns="http://www.w3.org/2000/svg">
<g filter="url(#filter0_d_18_11145)">
<path d="M46.1201 103.1C37.5335 103.1 30.4868 102.4 24.9801 101C19.5668 99.6933 15.3201 97.8267 12.2401 95.4C9.16012 92.88 7.01345 89.8934 5.80012 86.44C4.68012 82.9867 4.12012 79.1133 4.12012 74.82V28.9C4.12012 20.4067 6.54678 13.5 11.4001 8.18001C16.3468 2.86001 25.4001 0.200012 38.5601 0.200012H70.7601C72.5334 0.200012 73.7935 0.62001 74.5401 1.46001C75.3801 2.20668 75.8001 3.46668 75.8001 5.24001V21.76C75.8001 23.5333 75.3801 24.84 74.5401 25.68C73.7935 26.4267 72.5334 26.8 70.7601 26.8H44.5801C41.1268 26.8 38.7935 27.36 37.5801 28.48C36.3668 29.5067 35.7601 31.7467 35.7601 35.2V38.28C38.0001 37.6267 40.5668 37.1133 43.4601 36.74C46.4468 36.3667 49.8068 36.18 53.5401 36.18C66.1401 36.18 74.7734 38.3267 79.4401 42.62C84.1068 46.82 86.4401 53.0733 86.4401 61.38V74.82C86.4401 79.1133 85.8335 82.9867 84.6201 86.44C83.5001 89.8934 81.4001 92.88 78.3201 95.4C75.3335 97.8267 71.2268 99.6933 66.0001 101C60.7735 102.4 54.1468 103.1 46.1201 103.1ZM35.7601 64.32V72.58C35.7601 74.0734 36.3201 75.3333 37.4401 76.36C38.5601 77.2933 41.1268 77.76 45.1401 77.76C49.3401 77.76 52.0001 77.2933 53.1201 76.36C54.2401 75.3333 54.8001 74.0734 54.8001 72.58V64.32C54.8001 62.92 54.2401 61.7533 53.1201 60.82C52.0001 59.7933 49.3401 59.28 45.1401 59.28C41.1268 59.28 38.5601 59.7933 37.4401 60.82C36.3201 61.7533 35.7601 62.92 35.7601 64.32Z" fill="#FF9600"/>
</g>
<defs>
<filter id="filter0_d_18_11145" x="0.120117" y="0.200012" width="90.3201" height="110.9" filterUnits="userSpaceOnUse" color-interpolation-filters="sRGB">
<feFlood flood-opacity="0" result="BackgroundImageFix"/>
<feColorMatrix in="SourceAlpha" type="matrix" values="0 0 0 0 0 0 0 0 0 0 0 0 0 0 0 0 0 0 127 0" result="hardAlpha"/>
<feOffset dy="4"/>
<feGaussianBlur stdDeviation="2"/>
<feComposite in2="hardAlpha" operator="out"/>
<feColorMatrix type="matrix" values="0 0 0 0 0 0 0 0 0 0 0 0 0 0 0 0 0 0 0.25 0"/>
<feBlend mode="normal" in2="BackgroundImageFix" result="effect1_dropShadow_18_11145"/>
<feBlend mode="normal" in="SourceGraphic" in2="effect1_dropShadow_18_11145" result="shape"/>
</filter>
</defs>
</svg>
