<svg width="95" height="114" viewBox="0 0 95 114" fill="none" xmlns="http://www.w3.org/2000/svg">
<g filter="url(#filter0_d_18_11147)">
<path d="M90.9601 67.16V80.74C90.9601 84.38 90.2601 87.6933 88.8601 90.68C87.5534 93.6666 85.2667 96.2333 82.0001 98.38C78.7334 100.527 74.3001 102.16 68.7001 103.28C63.1934 104.493 56.2401 105.1 47.8401 105.1C39.4401 105.1 32.4401 104.493 26.8401 103.28C21.2401 102.16 16.8067 100.527 13.5401 98.38C10.2734 96.2333 7.94008 93.6666 6.54008 90.68C5.23341 87.6933 4.58008 84.38 4.58008 80.74V67.16C4.58008 60.6266 5.98008 55.5866 8.78008 52.04C11.6734 48.4933 15.2201 46.3 19.4201 45.46C16.3401 44.1533 14.1934 42.1933 12.9801 39.58C11.7667 36.9666 11.1601 33.8866 11.1601 30.34V22.22C11.1601 18.7666 11.7667 15.6866 12.9801 12.98C14.1934 10.2733 16.2001 7.98664 19.0001 6.11997C21.8001 4.15997 25.5801 2.66664 30.3401 1.63997C35.1001 0.613308 40.9801 0.0999756 47.9801 0.0999756C54.9801 0.0999756 60.8134 0.613308 65.4801 1.63997C70.2401 2.66664 73.9734 4.15997 76.6801 6.11997C79.4801 7.98664 81.4401 10.2733 82.5601 12.98C83.7734 15.6866 84.3801 18.7666 84.3801 22.22V30.34C84.3801 33.8866 83.7734 36.9666 82.5601 39.58C81.3467 42.1933 79.2001 44.1533 76.1201 45.46C80.3201 46.3 83.8201 48.4933 86.6201 52.04C89.5134 55.5866 90.9601 60.6266 90.9601 67.16ZM39.0201 35.8C39.0201 37.2933 39.4867 38.5533 40.4201 39.58C41.4467 40.5133 43.9201 40.98 47.8401 40.98C51.8534 40.98 54.2801 40.5133 55.1201 39.58C56.0534 38.5533 56.5201 37.2933 56.5201 35.8V29.64C56.5201 28.24 56.0534 27.0733 55.1201 26.14C54.2801 25.1133 51.8534 24.6 47.8401 24.6C43.9201 24.6 41.4467 25.1133 40.4201 26.14C39.4867 27.0733 39.0201 28.24 39.0201 29.64V35.8ZM35.5201 75.42C35.5201 76.9133 36.3134 78.1733 37.9001 79.2C39.4867 80.1333 42.8001 80.6 47.8401 80.6C52.8801 80.6 56.1467 80.1333 57.6401 79.2C59.2267 78.1733 60.0201 76.9133 60.0201 75.42V68C60.0201 66.6 59.2267 65.4333 57.6401 64.5C56.1467 63.4733 52.8801 62.96 47.8401 62.96C42.8001 62.96 39.4867 63.4733 37.9001 64.5C36.3134 65.4333 35.5201 66.6 35.5201 68V75.42Z" fill="#FF9600"/>
</g>
<defs>
<filter id="filter0_d_18_11147" x="0.580078" y="0.0999756" width="94.3799" height="113" filterUnits="userSpaceOnUse" color-interpolation-filters="sRGB">
<feFlood flood-opacity="0" result="BackgroundImageFix"/>
<feColorMatrix in="SourceAlpha" type="matrix" values="0 0 0 0 0 0 0 0 0 0 0 0 0 0 0 0 0 0 127 0" result="hardAlpha"/>
<feOffset dy="4"/>
<feGaussianBlur stdDeviation="2"/>
<feComposite in2="hardAlpha" operator="out"/>
<feColorMatrix type="matrix" values="0 0 0 0 0 0 0 0 0 0 0 0 0 0 0 0 0 0 0.25 0"/>
<feBlend mode="normal" in2="BackgroundImageFix" result="effect1_dropShadow_18_11147"/>
<feBlend mode="normal" in="SourceGraphic" in2="effect1_dropShadow_18_11147" result="shape"/>
</filter>
</defs>
</svg>
