<svg width="91" height="111" viewBox="0 0 91 111" fill="none" xmlns="http://www.w3.org/2000/svg">
<g filter="url(#filter0_d_18_11148)">
<path d="M52.4601 103H20.2601C18.4867 103 17.1801 102.627 16.3401 101.88C15.5934 101.04 15.2201 99.7333 15.2201 97.96V81.44C15.2201 79.6666 15.5934 78.4066 16.3401 77.66C17.1801 76.82 18.4867 76.4 20.2601 76.4H46.4401C49.8934 76.4 52.2267 75.8866 53.4401 74.86C54.6534 73.74 55.2601 71.4533 55.2601 68V64.92C53.0201 65.5733 50.4067 66.0866 47.4201 66.46C44.5267 66.8333 41.2134 67.02 37.4801 67.02C24.8801 67.02 16.2467 64.92 11.5801 60.72C6.91341 56.4266 4.58008 50.1266 4.58008 41.82V28.38C4.58008 24.0866 5.14008 20.2133 6.26008 16.76C7.47341 13.3066 9.57341 10.3666 12.5601 7.93998C15.6401 5.41997 19.7934 3.50664 25.0201 2.19997C30.2467 0.799975 36.8734 0.0999756 44.9001 0.0999756C53.4867 0.0999756 60.4867 0.799975 65.9001 2.19997C71.4067 3.50664 75.7001 5.41997 78.7801 7.93998C81.8601 10.3666 83.9601 13.3066 85.0801 16.76C86.2934 20.2133 86.9001 24.0866 86.9001 28.38V74.3C86.9001 82.7933 84.4267 89.7 79.4801 95.02C74.6267 100.34 65.6201 103 52.4601 103ZM55.2601 38.88V30.62C55.2601 29.1266 54.7001 27.9133 53.5801 26.98C52.4601 25.9533 49.8934 25.44 45.8801 25.44C41.6801 25.44 39.0201 25.9533 37.9001 26.98C36.7801 27.9133 36.2201 29.1266 36.2201 30.62V38.88C36.2201 40.28 36.7801 41.4933 37.9001 42.52C39.0201 43.4533 41.6801 43.92 45.8801 43.92C49.8934 43.92 52.4601 43.4533 53.5801 42.52C54.7001 41.4933 55.2601 40.28 55.2601 38.88Z" fill="#FF9600"/>
</g>
<defs>
<filter id="filter0_d_18_11148" x="0.580078" y="0.0999756" width="90.3201" height="110.9" filterUnits="userSpaceOnUse" color-interpolation-filters="sRGB">
<feFlood flood-opacity="0" result="BackgroundImageFix"/>
<feColorMatrix in="SourceAlpha" type="matrix" values="0 0 0 0 0 0 0 0 0 0 0 0 0 0 0 0 0 0 127 0" result="hardAlpha"/>
<feOffset dy="4"/>
<feGaussianBlur stdDeviation="2"/>
<feComposite in2="hardAlpha" operator="out"/>
<feColorMatrix type="matrix" values="0 0 0 0 0 0 0 0 0 0 0 0 0 0 0 0 0 0 0.25 0"/>
<feBlend mode="normal" in2="BackgroundImageFix" result="effect1_dropShadow_18_11148"/>
<feBlend mode="normal" in="SourceGraphic" in2="effect1_dropShadow_18_11148" result="shape"/>
</filter>
</defs>
</svg>
