<svg width="137" height="101" viewBox="0 0 137 101" fill="none" xmlns="http://www.w3.org/2000/svg">
<path fill-rule="evenodd" clip-rule="evenodd" d="M26.516 46.1381C34.8146 46.1381 41.5418 39.4108 41.5418 31.1123C41.5418 22.8138 34.8146 16.0865 26.516 16.0865C18.2175 16.0865 11.4902 22.8138 11.4902 31.1123C11.4902 39.4108 18.2175 46.1381 26.516 46.1381ZM26.516 34.6478C28.4686 34.6478 30.0515 33.0649 30.0515 31.1123C30.0515 29.1597 28.4686 27.5768 26.516 27.5768C24.5634 27.5768 22.9806 29.1597 22.9806 31.1123C22.9806 33.0649 24.5634 34.6478 26.516 34.6478Z" fill="white"/>
<path fill-rule="evenodd" clip-rule="evenodd" d="M73.1844 95.9884C81.4829 95.9884 88.2102 89.2611 88.2102 80.9626C88.2102 72.6641 81.4829 65.9368 73.1844 65.9368C64.8859 65.9368 58.1586 72.6641 58.1586 80.9626C58.1586 89.2611 64.8859 95.9884 73.1844 95.9884ZM73.1844 84.4981C75.137 84.4981 76.7199 82.9152 76.7199 80.9626C76.7199 79.01 75.137 77.4271 73.1844 77.4271C71.2318 77.4271 69.6489 79.01 69.6489 80.9626C69.6489 82.9152 71.2318 84.4981 73.1844 84.4981Z" fill="white"/>
<path fill-rule="evenodd" clip-rule="evenodd" d="M105.711 95.9884C114.009 95.9884 120.737 89.2611 120.737 80.9626C120.737 72.6641 114.009 65.9368 105.711 65.9368C97.4124 65.9368 90.6851 72.6641 90.6851 80.9626C90.6851 89.2611 97.4124 95.9884 105.711 95.9884ZM105.711 84.4981C107.663 84.4981 109.246 82.9152 109.246 80.9626C109.246 79.01 107.663 77.4271 105.711 77.4271C103.758 77.4271 102.175 79.01 102.175 80.9626C102.175 82.9152 103.758 84.4981 105.711 84.4981Z" fill="white"/>
<path d="M109.953 17.1471H121.444V45.431H109.953V17.1471Z" fill="white"/>
<path d="M121.444 10.6065C121.444 13.7306 118.911 16.2633 115.787 16.2633C112.663 16.2633 110.13 13.7306 110.13 10.6065C110.13 7.48233 112.663 4.94971 115.787 4.94971C118.911 4.94971 121.444 7.48233 121.444 10.6065Z" fill="white"/>
<path d="M59.0425 46.1381C67.341 46.1381 74.0683 39.4108 74.0683 31.1123C74.0683 22.8138 67.341 16.0865 59.0425 16.0865C50.744 16.0865 44.0167 22.8138 44.0167 31.1123C44.0167 31.3354 44.0215 31.5573 44.0312 31.778C44.0216 31.9084 44.0167 32.0401 44.0167 32.1729V55.1536H55.507V31.2891H55.5113C55.5085 31.2305 55.507 31.1716 55.507 31.1123C55.507 29.1597 57.0899 27.5768 59.0425 27.5768C60.9951 27.5768 62.578 29.1597 62.578 31.1123C62.578 33.0649 60.9951 34.6478 59.0425 34.6478C57.7737 34.6478 56.6611 33.9794 56.0373 32.9756V45.8375C57.0083 46.0346 58.0133 46.1381 59.0425 46.1381Z" fill="white"/>
<path d="M40.658 65.9368C32.3595 65.9368 25.6322 72.6641 25.6322 80.9626C25.6322 89.2611 32.3595 95.9884 40.658 95.9884C48.9565 95.9884 55.6838 89.2611 55.6838 80.9626C55.6838 80.7395 55.6789 80.5176 55.6693 80.2969C55.6789 80.1665 55.6838 80.0348 55.6838 79.902V56.9213H44.1935V80.7858H44.1891C44.192 80.8444 44.1935 80.9033 44.1935 80.9626C44.1935 82.9152 42.6106 84.4981 40.658 84.4981C38.7054 84.4981 37.1225 82.9152 37.1225 80.9626C37.1225 79.01 38.7054 77.4271 40.658 77.4271C41.9267 77.4271 43.0394 78.0955 43.6631 79.0993V66.2374C42.6921 66.0403 41.6871 65.9368 40.658 65.9368Z" fill="white"/>
<path d="M91.5689 46.1381C99.8675 46.1381 106.595 39.4108 106.595 31.1123C106.595 22.8138 99.8675 16.0865 91.5689 16.0865C83.2704 16.0865 76.5431 22.8138 76.5431 31.1123C76.5431 31.3354 76.548 31.5573 76.5576 31.778C76.548 31.9084 76.5431 32.0401 76.5431 32.1729V55.1536H88.0335V31.2891H88.0378C88.0349 31.2305 88.0335 31.1716 88.0335 31.1123C88.0335 29.1597 89.6163 27.5768 91.5689 27.5768C93.5215 27.5768 95.1044 29.1597 95.1044 31.1123C95.1044 33.0649 93.5215 34.6478 91.5689 34.6478C90.3002 34.6478 89.1875 33.9794 88.5638 32.9756V45.8375C89.5348 46.0346 90.5398 46.1381 91.5689 46.1381Z" fill="white"/>
<path fill-rule="evenodd" clip-rule="evenodd" d="M119.323 1.76774H17.6774C8.89075 1.76774 1.76774 8.89075 1.76774 17.6774V83.0839C1.76774 91.8705 8.89075 98.9935 17.6774 98.9935H119.323C128.109 98.9935 135.232 91.8705 135.232 83.0839V17.6774C135.232 8.89075 128.109 1.76774 119.323 1.76774ZM17.6774 0C7.91445 0 0 7.91445 0 17.6774V83.0839C0 92.8468 7.91445 100.761 17.6774 100.761H119.323C129.086 100.761 137 92.8468 137 83.0839V17.6774C137 7.91445 129.086 0 119.323 0H17.6774Z" fill="white"/>
</svg>
