<svg width="16" height="16" viewBox="0 0 16 16" fill="none" xmlns="http://www.w3.org/2000/svg">
<g clip-path="url(#clip0_101_160)">
<path fill-rule="evenodd" clip-rule="evenodd" d="M8 15.2661C12.0129 15.2661 15.2661 12.0129 15.2661 8C15.2661 3.98707 12.0129 0.733945 8 0.733945C3.98707 0.733945 0.733945 3.98707 0.733945 8C0.733945 12.0129 3.98707 15.2661 8 15.2661ZM8 16C12.4183 16 16 12.4183 16 8C16 3.58172 12.4183 0 8 0C3.58172 0 0 3.58172 0 8C0 12.4183 3.58172 16 8 16Z" fill="#9AD4D6"/>
<path fill-rule="evenodd" clip-rule="evenodd" d="M8.00001 14.5321C11.6076 14.5321 14.5321 11.6076 14.5321 8.00001C14.5321 4.39242 11.6076 1.4679 8.00001 1.4679C4.39242 1.4679 1.4679 4.39242 1.4679 8.00001C1.4679 11.6076 4.39242 14.5321 8.00001 14.5321ZM2.64221 5.65137C2.64221 5.65137 4.96987 3.4153 8.0734 4.93006C11.1769 6.44481 13.5046 5.65137 13.5046 5.65137C13.5046 5.65137 11.1769 7.88744 8.0734 6.37269C4.96987 4.85793 2.64221 5.65137 2.64221 5.65137ZM8.0734 7.27868C4.96987 5.76393 2.64221 8 2.64221 8C2.64221 8 4.96987 7.20656 8.0734 8.72131C11.1769 10.2361 13.5046 8 13.5046 8C13.5046 8 11.1769 8.79344 8.0734 7.27868ZM2.64221 10.2018C2.64221 10.2018 4.96987 7.96576 8.0734 9.48051C11.1769 10.9953 13.5046 10.2018 13.5046 10.2018C13.5046 10.2018 11.1769 12.4379 8.0734 10.9231C4.96987 9.40839 2.64221 10.2018 2.64221 10.2018Z" fill="#9AD4D6"/>
</g>
<defs>
<clipPath id="clip0_101_160">
<rect width="16" height="16" fill="white"/>
</clipPath>
</defs>
</svg>
