<svg width="200" height="60" viewBox="0 0 200 60" fill="none" xmlns="http://www.w3.org/2000/svg">
<path fill-rule="evenodd" clip-rule="evenodd" d="M33 51.7982C45.0388 51.7982 54.7982 42.0388 54.7982 30C54.7982 17.9612 45.0388 8.20183 33 8.20183C20.9612 8.20183 11.2018 17.9612 11.2018 30C11.2018 42.0388 20.9612 51.7982 33 51.7982ZM33 54C46.2548 54 57 43.2548 57 30C57 16.7452 46.2548 6 33 6C19.7452 6 9 16.7452 9 30C9 43.2548 19.7452 54 33 54Z" fill="#9AD4D6"/>
<path fill-rule="evenodd" clip-rule="evenodd" d="M33 49.5963C43.8228 49.5963 52.5963 40.8227 52.5963 30C52.5963 19.1772 43.8228 10.4037 33 10.4037C22.1773 10.4037 13.4037 19.1772 13.4037 30C13.4037 40.8227 22.1773 49.5963 33 49.5963ZM16.9266 22.9541C16.9266 22.9541 23.9096 16.2459 33.2202 20.7902C42.5308 25.3344 49.5138 22.9541 49.5138 22.9541C49.5138 22.9541 42.5308 29.6623 33.2202 25.1181C23.9096 20.5738 16.9266 22.9541 16.9266 22.9541ZM33.2202 27.836C23.9096 23.2918 16.9266 30 16.9266 30C16.9266 30 23.9096 27.6197 33.2202 32.1639C42.5308 36.7082 49.5138 30 49.5138 30C49.5138 30 42.5308 32.3803 33.2202 27.836ZM16.9266 36.6055C16.9266 36.6055 23.9096 29.8973 33.2202 34.4415C42.5308 38.9858 49.5138 36.6055 49.5138 36.6055C49.5138 36.6055 42.5308 43.3137 33.2202 38.7694C23.9096 34.2252 16.9266 36.6055 16.9266 36.6055Z" fill="#9AD4D6"/>
<path d="M64.0988 20.2208H67.4049L68.9381 33.9788L69.1114 37.1917H69.4447L69.7646 33.5788L72.2176 20.2208H74.9772L77.3235 33.5788L77.5902 37.1917H77.9368L78.0967 33.9788L79.4965 20.2208H82.8161L79.6299 42.9908H76.1237L74.244 32.0457L73.6574 27.2864H73.3908L72.8175 32.0457L70.8445 42.9908H67.3783L64.0988 20.2208Z" fill="#9AD4D6"/>
<path d="M85.2824 20.2208H93.7212V22.9404H88.7352V29.7527H92.588V32.4723H88.7352V40.2712H93.8545V42.9908H85.2824V20.2208Z" fill="#9AD4D6"/>
<path d="M98.8538 20.2208H102.827L107.039 42.9908H103.546L102.92 38.9114H98.7605L98.1605 42.9908H94.6544L98.8538 20.2208ZM102.52 36.3118L100.92 24.9667H100.773L99.1604 36.3118H102.52Z" fill="#9AD4D6"/>
<path d="M111.359 22.9404H107.693V20.2208H118.464V22.9404H114.811V42.9908H111.359V22.9404Z" fill="#9AD4D6"/>
<path d="M120.797 20.2208H124.25V29.7527H128.343V20.2208H131.796V42.9908H128.343V32.4723H124.25V42.9908H120.797V20.2208Z" fill="#9AD4D6"/>
<path d="M135.728 20.2208H144.167V22.9404H139.181V29.7527H143.034V32.4723H139.181V40.2712H144.301V42.9908H135.728V20.2208Z" fill="#9AD4D6"/>
<path d="M146.794 20.2208H150.54C150.966 20.2208 151.433 20.2385 151.939 20.2741C152.455 20.3096 152.966 20.3985 153.473 20.5407C153.988 20.674 154.481 20.8784 154.952 21.154C155.432 21.4295 155.854 21.8072 156.219 22.2871C156.592 22.7671 156.89 23.3714 157.112 24.1002C157.334 24.8201 157.445 25.6955 157.445 26.7265V27.2997C157.445 29.0328 157.197 30.446 156.699 31.5391C156.201 32.6234 155.468 33.4055 154.499 33.8855L158.152 42.9908H154.499L151.473 34.472H150.18V42.9908H146.794V20.2208ZM150.7 31.9791C151.304 31.9791 151.815 31.9124 152.233 31.7791C152.651 31.6458 152.988 31.4236 153.246 31.1125C153.504 30.7926 153.69 30.3749 153.806 29.8594C153.921 29.335 153.979 28.6907 153.979 27.9263V26.1266C153.979 25.54 153.926 25.0334 153.819 24.6068C153.713 24.1802 153.53 23.8291 153.273 23.5536C153.024 23.2781 152.69 23.0737 152.273 22.9404C151.855 22.807 151.331 22.7404 150.7 22.7404H150.18V31.9791H150.7Z" fill="#9AD4D6"/>
<path d="M171.643 43.1908C171.279 43.1908 170.883 43.1597 170.457 43.0975C170.03 43.0441 169.608 42.9242 169.19 42.7375C168.773 42.5509 168.368 42.2887 167.977 41.951C167.595 41.6044 167.253 41.1511 166.951 40.5912C166.657 40.0312 166.422 39.3425 166.244 38.5248C166.066 37.6982 165.977 36.7162 165.977 35.5786V27.513C165.977 26.3665 166.066 25.3889 166.244 24.5801C166.431 23.7625 166.675 23.0781 166.977 22.5271C167.28 21.9672 167.622 21.5228 168.004 21.1939C168.395 20.8651 168.799 20.6163 169.217 20.4474C169.644 20.2696 170.066 20.1541 170.484 20.1008C170.901 20.0474 171.288 20.0208 171.643 20.0208C171.981 20.0208 172.354 20.0474 172.763 20.1008C173.181 20.1452 173.594 20.2519 174.003 20.4207C174.421 20.5807 174.825 20.8251 175.216 21.154C175.607 21.4739 175.954 21.9138 176.256 22.4738C176.558 23.0248 176.798 23.7136 176.976 24.5401C177.163 25.3578 177.256 26.3488 177.256 27.513V35.5786C177.256 36.7073 177.163 37.6805 176.976 38.4981C176.789 39.3069 176.545 39.9957 176.243 40.5645C175.94 41.1244 175.589 41.5777 175.189 41.9243C174.798 42.262 174.394 42.5287 173.976 42.7242C173.568 42.9108 173.159 43.0353 172.75 43.0975C172.341 43.1597 171.972 43.1908 171.643 43.1908ZM171.643 40.5912C171.981 40.5912 172.274 40.5334 172.523 40.4179C172.781 40.3023 172.99 40.1023 173.15 39.8179C173.319 39.5335 173.443 39.1603 173.523 38.6981C173.612 38.2271 173.656 37.636 173.656 36.925V26.5665C173.656 25.8377 173.612 25.2289 173.523 24.7401C173.443 24.2513 173.319 23.8602 173.15 23.5669C172.99 23.2648 172.781 23.0515 172.523 22.927C172.274 22.8026 171.981 22.7404 171.643 22.7404C171.297 22.7404 170.995 22.8026 170.737 22.927C170.479 23.0515 170.266 23.2648 170.097 23.5669C169.928 23.8602 169.799 24.2513 169.71 24.7401C169.63 25.2289 169.59 25.8377 169.59 26.5665V36.925C169.59 37.636 169.63 38.2271 169.71 38.6981C169.799 39.1603 169.928 39.5335 170.097 39.8179C170.266 40.1023 170.479 40.3023 170.737 40.4179C170.995 40.5334 171.297 40.5912 171.643 40.5912Z" fill="#9AD4D6"/>
<path d="M183.228 35.4052L178.642 20.2208H182.122L184.908 31.1125H185.068L187.828 20.2208H191.294L186.681 35.4052V42.9908H183.228V35.4052Z" fill="#9AD4D6"/>
</svg>
